<svg xmlns="http://www.w3.org/2000/svg" viewBox="0 0 395.85 360.17"><defs><style>.cls-1{fill:#45ba88;}.cls-2{fill:#323556;}.cls-3,.cls-5{fill:none;stroke-miterlimit:10;}.cls-3{stroke:#335;stroke-linecap:round;stroke-width:15px;}.cls-4,.cls-6,.cls-7{fill:#335;}.cls-5{stroke:#ec008c;}.cls-6{opacity:0.9;}.cls-7{opacity:0.8;}</style></defs><title>BT_logo-vertical</title><g id="Layer_2" data-name="Layer 2"><g id="content"><path class="cls-1" d="M51.48,308.94c0,7.17-4.38,12.75-11.35,14.94,8.76,2.39,13.74,9.46,13.74,17.52,0,14.34-13.34,18.22-25.29,18.22H0v-69.7H28.58C40.33,289.92,51.48,295.7,51.48,308.94ZM5.38,321.49h23.9c8.36,0,17.13-2.59,17.13-12.55,0-10.16-9.16-14.44-17.82-14.44H5.38Zm0,33h23.2c8.76,0,20-2.09,20-13.14-.1-10.85-10-14.74-19.32-14.74H5.38Z"/><path class="cls-1" d="M65.66,336c0-14,10.58-24.08,23.7-24.08s24.84,8,23,26.25h-42c.94,11,9.35,17.28,19,17.28,6.14,0,13.32-2.46,16.81-7.08l3.31,2.64c-4.53,5.95-12.65,9-20.11,9C76.24,360,65.66,350.79,65.66,336Zm42.59-1.89c-.09-11.52-7.65-17.94-18.89-17.94-9.63,0-17.94,6.52-19,17.94Z"/><path class="cls-1" d="M124.69,336.08c0-14,10.58-24.08,23.7-24.08s24.84,8,23,26.25h-42c.94,11,9.35,17.28,19,17.28,6.14,0,13.32-2.46,16.81-7.08l3.31,2.64c-4.53,5.95-12.65,9-20.11,9C135.26,360.06,124.69,350.9,124.69,336.08Zm42.59-1.89c-.1-11.52-7.65-17.94-18.89-17.94-9.63,0-17.94,6.52-19,17.94Z"/><path class="cls-2" d="M205.63,301.71h-22.1V289.76h57.35v11.95H218.78v58.13H205.63Z"/><path class="cls-2" d="M248,340.1c.73,5.67,5.59,9.76,13.48,9.76,4.13,0,9.53-1.58,12.1-4.27l7.15,7.15c-4.77,5-12.56,7.43-19.44,7.43-15.59,0-24.84-9.76-24.84-24.44,0-13.94,9.35-24,24-24,15.13,0,24.57,9.48,22.83,28.34Zm24.57-9.38c-.73-5.95-5.32-8.92-11.73-8.92-6.05,0-11,3-12.65,8.92Z"/><path class="cls-2" d="M336.38,352.61A23.16,23.16,0,0,1,319,359.73c-13.06,0-23.92-7.85-23.92-23.83S306,312.08,319,312.08a21.37,21.37,0,0,1,16.25,6.66l-7,7.39a13.67,13.67,0,0,0-9-3.56c-7.49,0-13,5.48-13,13.33,0,8.58,5.84,13.15,12.78,13.15a13.53,13.53,0,0,0,9.86-3.74Z"/><path class="cls-2" d="M360.41,289.43V319.3c4.38-5.68,9.76-7.37,15.33-7.37,13.94,0,20.11,9.46,20.11,23.9v23.68H383.71V335.93c0-9-4.68-12.75-11.15-12.75-7.17,0-12.15,6.07-12.15,13.44v22.88H348.26V289.43Z"/><path class="cls-3" d="M250.77,106.52"/><polygon class="cls-4" points="112.93 183.44 197.82 230.6 197.82 230.6 197.82 226.56 197.82 226.56 116.47 181.36 112.93 183.44"/><polygon class="cls-4" points="91.71 195.23 197.82 254.18 197.82 254.18 197.82 250.14 197.82 250.14 95.24 193.15 91.71 195.23"/><polygon class="cls-4" points="95.24 193.15 95.24 79.41 91.71 77.33 91.71 195.23 95.24 193.15"/><path class="cls-4" d="M197.82,134.86"/><path class="cls-5" d="M91.71,195"/><polygon class="cls-6" points="197.82 76.86 144.66 106.52 197.82 136.05 250.98 106.52 197.82 76.86"/><polygon class="cls-7" points="197.82 194.77 197.82 136.05 144.66 106.52 144.66 165.29 197.82 194.77"/><polygon class="cls-4" points="250.98 106.52 250.98 165.23 197.82 194.77 197.82 135.99 250.98 106.52"/><polygon class="cls-4" points="138.87 74.71 197.82 41.96 197.82 41.96 197.82 46 138.87 78.75 138.87 74.71"/><polygon class="cls-4" points="116.94 41.73 116.94 181.28 113.4 183.25 113.4 41.73 116.94 41.73"/><polygon class="cls-4" points="140.64 6.36 140.64 77.73 137.1 79.69 137.1 6.36 140.64 6.36"/><polygon class="cls-4" points="282.61 183.44 197.71 230.6 197.71 230.6 197.71 226.56 197.71 226.56 279.07 181.36 282.61 183.44"/><polygon class="cls-4" points="303.83 195.23 197.71 254.18 197.71 254.18 197.71 250.14 197.71 250.14 300.29 193.15 303.83 195.23"/><polygon class="cls-4" points="300.29 193.15 300.29 79.41 303.83 77.33 303.83 195.23 300.29 193.15"/><polygon class="cls-4" points="300.29 79.41 197.71 22.42 197.71 22.42 197.71 18.38 197.71 18.38 303.83 77.33 300.29 79.41"/><polygon class="cls-4" points="282.61 89.12 197.71 41.96 197.71 41.96 197.71 46 279.07 91.2 282.61 89.12"/><polygon class="cls-4" points="279.07 91.05 279.07 181.28 282.61 183.25 282.61 89.12 279.07 91.05"/><circle class="cls-1" cx="93.59" cy="76.86" r="5.9"/><circle class="cls-1" cx="115.05" cy="41.73" r="5.9"/><circle class="cls-1" cx="138.99" cy="5.9" r="5.9"/><circle class="cls-1" cx="115.21" cy="182.27" r="5.9"/><circle class="cls-1" cx="280.59" cy="182.27" r="5.9"/><circle class="cls-1" cx="197.71" cy="44.63" r="5.9"/><circle class="cls-1" cx="197.71" cy="20.57" r="5.9"/><circle class="cls-1" cx="197.71" cy="251.57" r="5.9"/><circle class="cls-1" cx="301.81" cy="76.86" r="5.9"/></g></g></svg>